# xmcd
#
# Track frame offsets:
#	150
#	18047
#	31407
#	53827
#	69030
#	87602
#	108967
#	132502
#	151597
#	168010
#	194322
#	212157
#	228042
#
# Disc length: 3258 seconds
#
# Revision: 42
# Processed by: cddbd v1.5.2PL0 Copyright (c) Steve Scherf et al.
# Submitted via: EasyCDDAExtractor 15.3.0.1
#
DISCID=970cb80d
DTITLE=P!nk - Can't Take Me Home
DYEAR=2000
DGENRE=Pop
TTITLE0=Split Personality
TTITLE1=Hell Wit Ya
TTITLE2=Most Girls
TTITLE3=There You Go
TTITLE4=You Make Me Sick
TTITLE5=Let Me Let You Know
TTITLE6=Love Is Such A Crazy Thing
TTITLE7=Private Show
TTITLE8=Can't Take Me Home
TTITLE9=Stop Falling
TTITLE10=Do What U Do
TTITLE11=Hiccup
TTITLE12=Is It Love
EXTD=by PyDeq YEAR: 2000
EXTT0=
EXTT1=
EXTT2=
EXTT3=
EXTT4=
EXTT5=
EXTT6=
EXTT7=
EXTT8=
EXTT9=
EXTT10=
EXTT11=
EXTT12=
PLAYORDER=
